<svg width="44" height="44" viewBox="0 0 44 44" fill="none" xmlns="http://www.w3.org/2000/svg">
<path d="M34.8333 14.6666V11H31.1666V7.33329H34.8333V3.66663H38.4999V7.33329H42.1666V11H38.4999V14.6666H34.8333ZM5.49992 40.3333C4.49159 40.3333 3.62809 39.974 2.90942 39.2553C2.19076 38.5366 1.83203 37.6737 1.83326 36.6666V14.6666C1.83326 13.6583 2.19259 12.7948 2.91126 12.0761C3.62992 11.3575 4.49281 10.9987 5.49992 11H11.2749L14.6666 7.33329H25.6666V11H16.2708L12.9249 14.6666H5.49992V36.6666H34.8333V20.1666H38.4999V36.6666C38.4999 37.675 38.1406 38.5385 37.4219 39.2571C36.7033 39.9758 35.8404 40.3345 34.8333 40.3333H5.49992ZM20.1666 33.9166C22.4583 33.9166 24.4065 33.1142 26.0113 31.5095C27.616 29.9047 28.4178 27.9571 28.4166 25.6666C28.4166 23.375 27.6142 21.4267 26.0094 19.822C24.4046 18.2172 22.457 17.4154 20.1666 17.4166C17.8749 17.4166 15.9267 18.219 14.3219 19.8238C12.7171 21.4286 11.9154 23.3762 11.9166 25.6666C11.9166 27.9583 12.719 29.9065 14.3238 31.5113C15.9285 33.1161 17.8761 33.9178 20.1666 33.9166ZM20.1666 30.25C18.8833 30.25 17.7985 29.8069 16.9124 28.9208C16.0263 28.0347 15.5833 26.95 15.5833 25.6666C15.5833 24.3833 16.0263 23.2986 16.9124 22.4125C17.7985 21.5263 18.8833 21.0833 20.1666 21.0833C21.4499 21.0833 22.5346 21.5263 23.4208 22.4125C24.3069 23.2986 24.7499 24.3833 24.7499 25.6666C24.7499 26.95 24.3069 28.0347 23.4208 28.9208C22.5346 29.8069 21.4499 30.25 20.1666 30.25Z" fill="white"/>
</svg>
