<svg width="20" height="20" viewBox="0 0 20 20" fill="none" xmlns="http://www.w3.org/2000/svg">
<path d="M6.89584 9.16667C6.57639 9.16667 6.33334 9.02417 6.16667 8.73917C6 8.45417 6.00695 8.17306 6.1875 7.89583L9.29167 2.83333C9.45834 2.56944 9.69445 2.4375 10 2.4375C10.3056 2.4375 10.5417 2.56944 10.7083 2.83333L13.8125 7.89583C13.9931 8.17361 14 8.455 13.8333 8.74C13.6667 9.025 13.4236 9.16722 13.1042 9.16667H6.89584ZM14.5833 18.3333C13.5417 18.3333 12.6561 17.9686 11.9267 17.2392C11.1972 16.5097 10.8328 15.6244 10.8333 14.5833C10.8333 13.5417 11.1981 12.6561 11.9275 11.9267C12.6569 11.1972 13.5422 10.8328 14.5833 10.8333C15.625 10.8333 16.5106 11.1981 17.24 11.9275C17.9694 12.6569 18.3339 13.5422 18.3333 14.5833C18.3333 15.625 17.9686 16.5106 17.2392 17.24C16.5097 17.9694 15.6244 18.3339 14.5833 18.3333ZM3.33334 17.9167C3.09723 17.9167 2.89917 17.8367 2.73917 17.6767C2.57917 17.5167 2.49945 17.3189 2.5 17.0833V12.0833C2.5 11.8472 2.58 11.6492 2.74 11.4892C2.9 11.3292 3.09778 11.2494 3.33334 11.25H8.33334C8.56945 11.25 8.7675 11.33 8.9275 11.49C9.0875 11.65 9.16723 11.8478 9.16667 12.0833V17.0833C9.16667 17.3194 9.08667 17.5175 8.92667 17.6775C8.76667 17.8375 8.56889 17.9172 8.33334 17.9167H3.33334ZM14.5833 16.6667C15.1667 16.6667 15.6597 16.4653 16.0625 16.0625C16.4653 15.6597 16.6667 15.1667 16.6667 14.5833C16.6667 14 16.4653 13.5069 16.0625 13.1042C15.6597 12.7014 15.1667 12.5 14.5833 12.5C14 12.5 13.5069 12.7014 13.1042 13.1042C12.7014 13.5069 12.5 14 12.5 14.5833C12.5 15.1667 12.7014 15.6597 13.1042 16.0625C13.5069 16.4653 14 16.6667 14.5833 16.6667ZM4.16667 16.25H7.5V12.9167H4.16667V16.25ZM8.375 7.5H11.625L10 4.875L8.375 7.5Z" fill="#109CF1"/>
</svg>
