<svg width="12" height="12" viewBox="0 0 12 12" fill="none" xmlns="http://www.w3.org/2000/svg">
<path d="M2.5 11.85C2.225 11.85 1.9895 11.7522 1.7935 11.5565C1.5975 11.3609 1.49967 11.1254 1.5 10.85V3.85002C1.5 3.57502 1.598 3.33952 1.794 3.14352C1.99 2.94752 2.22533 2.84969 2.5 2.85002H6.9625L5.9625 3.85002H2.5V10.85H9.5V7.37502L10.5 6.37502V10.85C10.5 11.125 10.402 11.3605 10.206 11.5565C10.01 11.7525 9.77467 11.8504 9.5 11.85H2.5ZM8.0875 3.13752L8.8 3.83752L5.5 7.13752V7.85002H6.2L9.5125 4.53752L10.225 5.23752L6.625 8.85002H4.5V6.72502L8.0875 3.13752ZM10.225 5.23752L8.0875 3.13752L9.3375 1.88752C9.5375 1.68752 9.77717 1.58752 10.0565 1.58752C10.3358 1.58752 10.5712 1.68752 10.7625 1.88752L11.4625 2.60002C11.6542 2.79169 11.75 3.02502 11.75 3.30002C11.75 3.57502 11.6542 3.80836 11.4625 4.00002L10.225 5.23752Z" fill="#334D6E"/>
</svg>
