<svg width="20" height="20" viewBox="0 0 20 20" fill="none" xmlns="http://www.w3.org/2000/svg">
<path d="M13.4375 0.375C12.4713 0.374779 11.5185 0.600889 10.6554 1.03521C9.79226 1.46954 9.0429 2.09999 8.46733 2.87607C7.89176 3.65214 7.50598 4.55225 7.34091 5.50426C7.17583 6.45627 7.23606 7.43371 7.51675 8.35825L0.375 15.5V19.625H4.5L11.6418 12.4832C12.4928 12.7416 13.3896 12.8134 14.2709 12.6938C15.1522 12.5742 15.9974 12.2661 16.7488 11.7903C17.5003 11.3145 18.1403 10.6823 18.6254 9.93682C19.1104 9.19131 19.429 8.35001 19.5595 7.47023C19.69 6.59045 19.6292 5.69288 19.3815 4.83869C19.1337 3.9845 18.7047 3.19377 18.1236 2.52039C17.5426 1.847 16.8233 1.30678 16.0146 0.936557C15.2059 0.566331 14.3269 0.374794 13.4375 0.375ZM13.4375 11.375C12.9642 11.3747 12.4935 11.3048 12.0405 11.1674L11.2519 10.9281L10.6696 11.5104L8.48269 13.6974L7.53462 12.75L6.5625 13.7221L7.51056 14.6702L6.42019 15.7606L5.47212 14.8125L4.5 15.7846L5.44806 16.7327L3.93075 18.25H1.75V16.0692L8.48888 9.33037L9.07187 8.74806L8.83263 7.9595C8.53877 6.99081 8.55786 5.95412 8.88718 4.9969C9.21649 4.03968 9.83926 3.21068 10.6669 2.62782C11.4945 2.04495 12.4849 1.73791 13.4971 1.75036C14.5093 1.76282 15.4918 2.09413 16.3049 2.69718C17.1179 3.30023 17.7201 4.1443 18.0258 5.10933C18.3314 6.07436 18.325 7.11121 18.0074 8.07238C17.6898 9.03355 17.0772 9.8701 16.2568 10.463C15.4363 11.056 14.4498 11.3751 13.4375 11.375Z" fill="black"/>
</svg>
