<svg width="20" height="20" viewBox="0 0 20 20" fill="none" xmlns="http://www.w3.org/2000/svg">
<path d="M14.6042 16.6875L16.7292 15.3542C16.8681 15.2708 16.9375 15.1528 16.9375 15C16.9375 14.8472 16.8681 14.7292 16.7292 14.6458L14.6042 13.3125C14.4653 13.2292 14.3231 13.2256 14.1775 13.3017C14.0319 13.3778 13.9589 13.4994 13.9583 13.6667V16.3333C13.9583 16.5 14.0314 16.6217 14.1775 16.6983C14.3236 16.775 14.4658 16.7714 14.6042 16.6875ZM5.83333 7.5H14.1667C14.4028 7.5 14.6008 7.42 14.7608 7.26C14.9208 7.1 15.0006 6.90222 15 6.66667C15 6.43056 14.92 6.2325 14.76 6.0725C14.6 5.9125 14.4022 5.83278 14.1667 5.83333H5.83333C5.59722 5.83333 5.39917 5.91334 5.23917 6.07333C5.07917 6.23334 4.99944 6.43111 5 6.66667C5 6.90278 5.08 7.10084 5.24 7.26084C5.4 7.42084 5.59778 7.50056 5.83333 7.5ZM15 19.1667C13.8472 19.1667 12.8644 18.7603 12.0517 17.9475C11.2389 17.1347 10.8328 16.1522 10.8333 15C10.8333 13.8472 11.2397 12.8647 12.0525 12.0525C12.8653 11.2403 13.8478 10.8339 15 10.8333C16.1528 10.8333 17.1356 11.2397 17.9483 12.0525C18.7611 12.8653 19.1672 13.8478 19.1667 15C19.1667 16.1528 18.7603 17.1356 17.9475 17.9483C17.1347 18.7611 16.1522 19.1672 15 19.1667ZM2.5 18.2292V4.16667C2.5 3.70833 2.66333 3.31583 2.99 2.98917C3.31667 2.6625 3.70889 2.49945 4.16667 2.5H15.8333C16.2917 2.5 16.6842 2.66333 17.0108 2.99C17.3375 3.31667 17.5006 3.70889 17.5 4.16667V9.72917C17.2361 9.60417 16.9653 9.5 16.6875 9.41667C16.4097 9.33333 16.125 9.27084 15.8333 9.22917V4.16667H4.16667V15.875H9.22917C9.29861 16.3056 9.40639 16.7153 9.5525 17.1042C9.69861 17.4931 9.88944 17.8611 10.125 18.2083C10.0556 18.2222 9.9825 18.2119 9.90583 18.1775C9.82917 18.1431 9.76333 18.0978 9.70833 18.0417L9.04167 17.375C8.95833 17.2917 8.86111 17.25 8.75 17.25C8.63889 17.25 8.54167 17.2917 8.45833 17.375L7.79167 18.0417C7.70833 18.125 7.61111 18.1667 7.5 18.1667C7.38889 18.1667 7.29167 18.125 7.20833 18.0417L6.54167 17.375C6.45833 17.2917 6.36111 17.25 6.25 17.25C6.13889 17.25 6.04167 17.2917 5.95833 17.375L5.29167 18.0417C5.20833 18.125 5.11111 18.1667 5 18.1667C4.88889 18.1667 4.79167 18.125 4.70833 18.0417L4.04167 17.375C3.95833 17.2917 3.86111 17.25 3.75 17.25C3.63889 17.25 3.54167 17.2917 3.45833 17.375L2.79167 18.0417L2.5 18.2292ZM5.83333 14.1667H9.22917C9.27083 13.875 9.33333 13.5903 9.41667 13.3125C9.5 13.0347 9.60417 12.7639 9.72917 12.5H5.83333C5.59722 12.5 5.39917 12.58 5.23917 12.74C5.07917 12.9 4.99944 13.0978 5 13.3333C5 13.5694 5.08 13.7675 5.24 13.9275C5.4 14.0875 5.59778 14.1672 5.83333 14.1667ZM5.83333 10.8333H10.9167C11.4444 10.3194 12.0592 9.91306 12.7608 9.61417C13.4625 9.31528 14.2089 9.16611 15 9.16667H5.83333C5.59722 9.16667 5.39917 9.24667 5.23917 9.40667C5.07917 9.56667 4.99944 9.76445 5 10C5 10.2361 5.08 10.4342 5.24 10.5942C5.4 10.7542 5.59778 10.8339 5.83333 10.8333Z" fill="#C2CFE0"/>
</svg>
