<svg width="20" height="20" viewBox="0 0 20 20" fill="none" xmlns="http://www.w3.org/2000/svg">
<path d="M17.8417 9.50829L10.4834 2.14996C10.1751 1.84163 9.75008 1.66663 9.30841 1.66663H3.33341C2.41675 1.66663 1.66675 2.41663 1.66675 3.33329V9.30829C1.66675 9.74996 1.84175 10.175 2.15841 10.4833L9.51675 17.8416C10.1667 18.4916 11.2251 18.4916 11.8751 17.8416L17.8501 11.8666C18.5001 11.2166 18.5001 10.1666 17.8417 9.50829ZM10.6917 16.6666L3.33341 9.30829V3.33329H9.30841L16.6667 10.6916L10.6917 16.6666Z" fill="#C2CFE0"/>
<path d="M5.41675 6.66663C6.1071 6.66663 6.66675 6.10698 6.66675 5.41663C6.66675 4.72627 6.1071 4.16663 5.41675 4.16663C4.72639 4.16663 4.16675 4.72627 4.16675 5.41663C4.16675 6.10698 4.72639 6.66663 5.41675 6.66663Z" fill="#C2CFE0"/>
</svg>
