<svg width="97" height="27" viewBox="0 0 97 27" fill="none" xmlns="http://www.w3.org/2000/svg">
<path d="M10.688 11.36C11.664 11.568 12.448 12.056 13.04 12.824C13.632 13.576 13.928 14.44 13.928 15.416C13.928 16.824 13.432 17.944 12.44 18.776C11.464 19.592 10.096 20 8.336 20H0.488V3.152H8.072C9.784 3.152 11.12 3.544 12.08 4.328C13.056 5.112 13.544 6.176 13.544 7.52C13.544 8.512 13.28 9.336 12.752 9.992C12.24 10.648 11.552 11.104 10.688 11.36ZM4.592 9.968H7.28C7.952 9.968 8.464 9.824 8.816 9.536C9.184 9.232 9.368 8.792 9.368 8.216C9.368 7.64 9.184 7.2 8.816 6.896C8.464 6.592 7.952 6.44 7.28 6.44H4.592V9.968ZM7.616 16.688C8.304 16.688 8.832 16.536 9.2 16.232C9.584 15.912 9.776 15.456 9.776 14.864C9.776 14.272 9.576 13.808 9.176 13.472C8.792 13.136 8.256 12.968 7.568 12.968H4.592V16.688H7.616ZM18.3723 5.216C17.6523 5.216 17.0603 5.008 16.5963 4.592C16.1483 4.16 15.9243 3.632 15.9243 3.008C15.9243 2.368 16.1483 1.84 16.5963 1.424C17.0603 0.991999 17.6523 0.775999 18.3723 0.775999C19.0763 0.775999 19.6523 0.991999 20.1003 1.424C20.5643 1.84 20.7963 2.368 20.7963 3.008C20.7963 3.632 20.5643 4.16 20.1003 4.592C19.6523 5.008 19.0763 5.216 18.3723 5.216ZM20.4123 6.608V20H16.3083V6.608H20.4123ZM28.4744 6.416C29.4184 6.416 30.2424 6.608 30.9464 6.992C31.6664 7.376 32.2184 7.88 32.6024 8.504V6.608H36.7064V19.976C36.7064 21.208 36.4584 22.32 35.9624 23.312C35.4824 24.32 34.7384 25.12 33.7304 25.712C32.7384 26.304 31.4984 26.6 30.0104 26.6C28.0264 26.6 26.4184 26.128 25.1864 25.184C23.9544 24.256 23.2504 22.992 23.0744 21.392H27.1304C27.2584 21.904 27.5624 22.304 28.0424 22.592C28.5224 22.896 29.1144 23.048 29.8184 23.048C30.6664 23.048 31.3384 22.8 31.8344 22.304C32.3464 21.824 32.6024 21.048 32.6024 19.976V18.08C32.2024 18.704 31.6504 19.216 30.9464 19.616C30.2424 20 29.4184 20.192 28.4744 20.192C27.3704 20.192 26.3704 19.912 25.4744 19.352C24.5784 18.776 23.8664 17.968 23.3384 16.928C22.8264 15.872 22.5704 14.656 22.5704 13.28C22.5704 11.904 22.8264 10.696 23.3384 9.656C23.8664 8.616 24.5784 7.816 25.4744 7.256C26.3704 6.696 27.3704 6.416 28.4744 6.416ZM32.6024 13.304C32.6024 12.28 32.3144 11.472 31.7384 10.88C31.1784 10.288 30.4904 9.992 29.6744 9.992C28.8584 9.992 28.1624 10.288 27.5864 10.88C27.0264 11.456 26.7464 12.256 26.7464 13.28C26.7464 14.304 27.0264 15.12 27.5864 15.728C28.1624 16.32 28.8584 16.616 29.6744 16.616C30.4904 16.616 31.1784 16.32 31.7384 15.728C32.3144 15.136 32.6024 14.328 32.6024 13.304ZM51.7955 3.152V6.44H47.3315V20H43.2275V6.44H38.7635V3.152H51.7955ZM66.4792 13.088C66.4792 13.472 66.4552 13.872 66.4072 14.288H57.1192C57.1832 15.12 57.4472 15.76 57.9112 16.208C58.3912 16.64 58.9752 16.856 59.6632 16.856C60.6872 16.856 61.3992 16.424 61.7992 15.56H66.1672C65.9432 16.44 65.5352 17.232 64.9432 17.936C64.3672 18.64 63.6392 19.192 62.7592 19.592C61.8792 19.992 60.8952 20.192 59.8072 20.192C58.4952 20.192 57.3272 19.912 56.3032 19.352C55.2792 18.792 54.4792 17.992 53.9032 16.952C53.3272 15.912 53.0392 14.696 53.0392 13.304C53.0392 11.912 53.3192 10.696 53.8792 9.656C54.4552 8.616 55.2552 7.816 56.2792 7.256C57.3032 6.696 58.4792 6.416 59.8072 6.416C61.1032 6.416 62.2552 6.688 63.2632 7.232C64.2712 7.776 65.0552 8.552 65.6152 9.56C66.1912 10.568 66.4792 11.744 66.4792 13.088ZM62.2792 12.008C62.2792 11.304 62.0392 10.744 61.5592 10.328C61.0792 9.912 60.4792 9.704 59.7592 9.704C59.0712 9.704 58.4872 9.904 58.0072 10.304C57.5432 10.704 57.2552 11.272 57.1432 12.008H62.2792ZM67.8283 13.304C67.8283 11.912 68.1083 10.696 68.6683 9.656C69.2443 8.616 70.0363 7.816 71.0443 7.256C72.0683 6.696 73.2363 6.416 74.5483 6.416C76.2283 6.416 77.6283 6.856 78.7483 7.736C79.8843 8.616 80.6283 9.856 80.9803 11.456H76.6123C76.2443 10.432 75.5323 9.92 74.4763 9.92C73.7243 9.92 73.1243 10.216 72.6763 10.808C72.2283 11.384 72.0043 12.216 72.0043 13.304C72.0043 14.392 72.2283 15.232 72.6763 15.824C73.1243 16.4 73.7243 16.688 74.4763 16.688C75.5323 16.688 76.2443 16.176 76.6123 15.152H80.9803C80.6283 16.72 79.8843 17.952 78.7483 18.848C77.6123 19.744 76.2123 20.192 74.5483 20.192C73.2363 20.192 72.0683 19.912 71.0443 19.352C70.0363 18.792 69.2443 17.992 68.6683 16.952C68.1083 15.912 67.8283 14.696 67.8283 13.304ZM91.4075 6.464C92.9435 6.464 94.1755 6.976 95.1035 8C96.0315 9.008 96.4955 10.4 96.4955 12.176V20H92.4155V12.728C92.4155 11.832 92.1835 11.136 91.7195 10.64C91.2555 10.144 90.6315 9.896 89.8475 9.896C89.0635 9.896 88.4395 10.144 87.9755 10.64C87.5115 11.136 87.2795 11.832 87.2795 12.728V20H83.1755V2.24H87.2795V8.408C87.6955 7.816 88.2635 7.344 88.9835 6.992C89.7035 6.64 90.5115 6.464 91.4075 6.464Z" fill="#109CF1"/>
</svg>
